<svg xmlns="http://www.w3.org/2000/svg" width="900" height="200" viewBox="-35 40 180 40"><defs><linearGradient id="a" x2="0" y2="1"><stop stop-color="#d9dadc"/><stop offset="1" stop-color="#7c7879"/></linearGradient><linearGradient id="b" x2="0" y2="1"><stop stop-color="#8f8d8d"/><stop offset="1" stop-color="#eee"/></linearGradient><linearGradient id="d" x2="0" y2="1"><stop stop-color="#364f5a"/><stop offset="1" stop-color="#38a7bb"/></linearGradient><filter id="c" width="180%" x="-40%"><feDropShadow dx="2" dy="0" stdDeviation="2"/></filter><filter id="e" width="180%" x="-40%"><feDropShadow dx="0" dy="0" stdDeviation="1"/><feDropShadow dx="0" dy="0" stdDeviation="5"/><feBlend in="SourceGraphic" mode="normal"/></filter></defs><g filter="brightness(1.4) contrast(0.7)"><path d="M-35 0v120H9l73-60L9 0" fill="url(#a)"/><path d="m8 0 72 60-72 60h2l72-60L10 0" fill="url(#b)" filter="url(#c)"/><path d="m9 0 72 60-72 60h7l72-60L16 0" fill="url(#b)" transform="matrix(1 0 0 -1 0 120)"/><path d="m15 0 72 60-72 60h2l72-60L17 0" fill="url(#d)"/><path d="m16 0 72 60-72 60h17l72-60L33 0" fill="url(#d)" transform="matrix(1 0 0 -1 0 120)"/><path d="m32 0 72 60-72 60h2l72-60L34 0" fill="url(#a)" filter="url(#e)" transform="matrix(1 0 0 -1 0 120)"/><path d="m33 0 72 60-72 60h12l72-60L45 0" fill="url(#a)"/><path d="m44 0 72 60-72 60h2l72-60L46 0" fill="url(#a)" filter="url(#e)" transform="matrix(1 0 0 -1 0 120)"/><path d="m45 0 72 60-72 60h100V0" fill="url(#a)"/></g></svg>