<svg xmlns="http://www.w3.org/2000/svg" fill-rule="evenodd" width="205" height="45" viewBox="0 -5 1120 253"><defs><radialGradient id="a" cx="40%" cy="40%" r="60%" fx="20%" fy="20%"><stop offset="0%" stop-color="#38a7bb"/><stop offset="100%" stop-color="#263f4a"/></radialGradient><filter id="b"><feGaussianBlur result="o" stdDeviation="4"/><feComposite in="SourceGraphic" in2="o" operator="out" result="i"/><feFlood flood-color="#000" result="c"/><feComposite in="c" in2="i" operator="in" result="s"/><feComposite in="c" in2="o2" operator="in" result="s2"/><feComposite in="s" in2="s2"/><feComposite in="s2" in2="SourceGraphic"/></filter></defs><circle fill="#eee" cx="120" cy="120" r="76"/><path d="M92 25c-6 2-12 4-18 7-6 2-22-13-33-3L29 41c-10 10 5 26 3 33-3 6-5 12-7 18-3 6-25 6-25 21v17c0 15 22 15 25 21 2 6 4 12 7 18 2 6-13 22-3 33l12 12c10 11 26-5 33-3 6 3 12 6 18 7 6 3 6 25 21 25h17c15 0 15-22 21-25 6-2 12-4 18-7 6-2 22 13 33 3l12-12c11-10-5-26-3-33 3-6 6-12 7-18 3-6 25-6 25-21v-17c0-15-22-15-25-21-2-6-4-12-7-18-2-6 13-22 3-33l-12-12c-10-10-26 5-33 3-6-3-12-5-18-7-6-3-6-25-21-25h-17C98 0 98 22 92 25zm-4 68c5-5 13 3 8 8l-20 20 20 20c5 5-3 14-8 8l-24-24c-2-2-2-6 0-8l24-24zm24 69c-3 7-13 3-11-4l28-77c3-7 13-3 11 4l-28 77zm42-12c-5 5-14-3-8-8l20-20-20-20c-5-5 3-13 8-8l24 24c2 2 2 6 0 8l-24 24zM121 47c-98 0-98 149 0 149s98-149 0-149z" fill="url(#a)" filter="url(#b)"/><path d="M304.2 157.8c-21.6 0-34.2-14.4-34.2-35.4 0-21.6 12.6-35.4 34.2-35.4s34.2 14.4 34.2 35.4-12.6 35.4-34.2 35.4zm0-9c14.4 0 19.2-14.4 19.2-26.4S318 96 304.2 96c-14.4 0-19.2 14.4-19.2 26.4s5.4 26.4 19.2 26.4zm45.6 6v-10.2c4.2 1.8 25.2 9 25.2-1.2 0-9-25.2-6.6-25.2-23.4 0-18 23.4-15.6 35.4-13.2v9.6c-4.2-1.2-22.2-6.6-22.2 2.4s25.8 6 25.8 22.8c0 19.2-27 16.8-39.6 13.2zm54 1.8V88.8h23.4c13.2 0 22.8 3 22.8 18 0 20.4-15.6 23.4-32.4 23.4v26.4h-13.8zm13.8-36c8.4 0 18-1.8 18-12.6s-10.2-10.2-18-10.2v22.8zm43.8 36v-50.4h13.8v9.6c3.6-7.2 10.8-11.4 18.6-10.2v12c-7.8-3-14.4.6-18.6 7.2v31.8h-13.8zm64.2 1.2c-16.2 0-25.8-10.2-25.8-26.4s9.6-26.4 25.8-26.4 25.8 10.2 25.8 26.4-9.6 26.4-25.8 26.4zm0-8.4c9 0 11.4-10.2 11.4-18 0-7.2-2.4-18-11.4-18s-11.4 10.2-11.4 18c0 7.2 2.4 18 11.4 18zm38.4 22.8 1.2-9.6c7.2 3 19.8 6.6 26.4 1.2 4.2-3.6 3.6-12 3.6-17.4-6.6 15-27 14.4-33-.6-4.2-10.2-3-23.4 3.6-31.8 7.8-10.8 21-9.6 30-1.2l1.2-5.4h12v38.4c0 11.4 0 22.8-12 28.2-10.2 4.8-22.8 3-33-1.2zm31.2-34.2v-18.6c-4.8-6-13.2-9-18-1.2-3.6 6-4.2 17.4-.6 23.4 5.4 8.4 14.4 2.4 18.6-4.2zm30.6 18.6v-50.4h13.8v9.6c3.6-7.2 10.2-11.4 18.6-10.2v12c-7.8-3-14.4.6-18.6 7.2v31.8h-13.8zm67.2-5.4c-10.8 10.2-29.4 9-29.4-7.8 0-16.2 17.4-17.4 29.4-17.4v-4.8c0-12.6-18.6-7.2-25.2-3.6V108c12.6-4.8 37.8-7.8 37.8 12v22.2c0 4.8 1.2 6.6 6 6v7.8c-16.8 4.8-16.8-5.4-19.2-5.4zm0-7.2v-10.2c-6 0-16.2 0-16.2 8.4 0 9.6 11.4 6.6 16.2 1.8zm30.6 12.6v-50.4h13.2v9.6c7.2-13.2 28.2-15.6 30.6 0 10.2-15 30.6-15 30.6 4.8v36h-13.2v-31.8c0-15-12-9-18 0v31.8h-13.2v-31.8c0-15-12-9-18 0v31.8h-13.2zm115.2-5.4c-10.8 10.2-29.4 9-29.4-7.8 0-16.2 17.4-17.4 29.4-17.4v-4.8c0-12.6-18.6-7.2-25.2-3.6V108c12.6-4.8 37.8-7.8 37.8 12v22.2c0 4.8 1.2 6.6 6 6v7.8c-16.2 4.8-17.4-5.4-19.2-5.4zm0-7.2v-10.2c-6 0-16.2 0-16.2 8.4 0 9.6 11.4 6.6 16.2 1.8zm61.8 12.6V147c-6 12.6-22.2 15-30.6 3.6-7.2-10.2-6.6-28.2.6-37.8 7.8-10.8 21-10.2 30-1.8V84h13.8v72h-13.8zm0-37.2c-4.8-6-13.8-9-18 0-3 6.6-4.2 17.4 0 23.4 5.4 9 14.4 2.4 18.6-3.6v-19.8zm52.8 38.4c-16.2 0-25.8-10.2-25.8-26.4s9.6-26.4 25.8-26.4 25.8 10.2 25.8 26.4-9.6 26.4-25.8 26.4zm0-8.4c9 0 11.4-10.2 11.4-18 0-7.2-2.4-18-11.4-18s-11.4 10.2-11.4 18c0 7.2 2.4 18 11.4 18zm38.4 7.2v-50.4h13.8v9.6c3.6-7.2 10.2-11.4 18.6-10.2v12c-7.8-3-14.4.6-18.6 7.2v31.8h-13.8zm83.4-1.8c-10.2 3-22.8 4.8-32.4 0-9-4.2-12.6-14.4-12.6-23.4 0-15 9-25.8 24-25.8 18 0 21 13.8 21 28.8H1044c1.8 17.4 18 16.2 31.2 11.4v9.6zm-31.2-28.2h18c0-5.4-1.2-12.6-8.4-12.6-6.6 0-9 7.2-9.6 12.6zm43.8 28.8v-10.2c4.2 1.8 25.2 9 25.2-1.2 0-9-25.2-6.6-25.2-23.4 0-18 23.4-15.6 35.4-13.2v9.6c-4.2-1.2-22.2-6.6-22.2 2.4s25.8 6 25.8 22.8c0 19.2-27 16.8-39.6 13.2z"/></svg>